<svg width="15" height="16" viewBox="0 0 15 16" fill="none" xmlns="http://www.w3.org/2000/svg">
<g clip-path="url(#clip0_4_205)">
<path d="M14.5142 1.57396H13.5005V0.582415C13.5005 0.260446 13.2456 0 12.9304 0H11.7742C11.459 0 11.2041 0.260446 11.2041 0.582415V1.57396H3.79592V0.582415C3.79592 0.260446 3.54098 0 3.22583 0H2.06959C1.75443 0 1.4995 0.260446 1.4995 0.582415V1.57396H0.484777C0.216795 1.57396 0 1.79544 0 2.06921V2.77467C0 3.04845 0.216795 3.26993 0.484777 3.26993H14.5142C14.7822 3.26993 14.999 3.04845 14.999 2.77467V2.06921C14.999 1.79544 14.7822 1.57396 14.5142 1.57396Z" fill="white"/>
<path d="M13.8488 4.66137H1.15022C0.514888 4.66137 0 5.18739 0 5.83645V14.8249C0 15.474 0.514888 16 1.15022 16H13.8488C14.4841 16 14.999 15.474 14.999 14.8249V5.83645C14.999 5.18739 14.4841 4.66137 13.8488 4.66137ZM3.31315 14.3307C3.31315 14.6045 3.09635 14.8259 2.82837 14.8259H1.53463C1.26664 14.8259 1.04985 14.6045 1.04985 14.3307V13.0305C1.04985 12.7567 1.26664 12.5352 1.53463 12.5352H2.82837C3.09635 12.5352 3.31315 12.7567 3.31315 13.0305V14.3307ZM3.31315 10.9839C3.31315 11.2576 3.09635 11.4791 2.82837 11.4791H1.53463C1.26664 11.4791 1.04985 11.2576 1.04985 10.9839V9.68367C1.04985 9.4099 1.26664 9.18841 1.53463 9.18841H2.82837C3.09635 9.18841 3.31315 9.4099 3.31315 9.68367V10.9839ZM3.31315 7.56216C3.31315 7.83594 3.09635 8.05742 2.82837 8.05742H1.53463C1.26664 8.05742 1.04985 7.83594 1.04985 7.56216V6.26198C1.04985 5.98821 1.26664 5.76673 1.53463 5.76673H2.82837C3.09635 5.76673 3.31315 5.98821 3.31315 6.26198V7.56216ZM6.85915 14.3307C6.85915 14.6045 6.64235 14.8259 6.37437 14.8259H5.08063C4.81265 14.8259 4.59585 14.6045 4.59585 14.3307V13.0305C4.59585 12.7567 4.81265 12.5352 5.08063 12.5352H6.37437C6.64235 12.5352 6.85915 12.7567 6.85915 13.0305V14.3307ZM6.85915 10.9839C6.85915 11.2576 6.64235 11.4791 6.37437 11.4791H5.08063C4.81265 11.4791 4.59585 11.2576 4.59585 10.9839V9.68367C4.59585 9.4099 4.81265 9.18841 5.08063 9.18841H6.37437C6.64235 9.18841 6.85915 9.4099 6.85915 9.68367V10.9839ZM6.85915 7.56216C6.85915 7.83594 6.64235 8.05742 6.37437 8.05742H5.08063C4.81265 8.05742 4.59585 7.83594 4.59585 7.56216V6.26198C4.59585 5.98821 4.81265 5.76673 5.08063 5.76673H6.37437C6.64235 5.76673 6.85915 5.98821 6.85915 6.26198V7.56216ZM10.4041 14.3307C10.4041 14.6045 10.1874 14.8259 9.91937 14.8259H8.62563C8.35764 14.8259 8.14085 14.6045 8.14085 14.3307V13.0305C8.14085 12.7567 8.35764 12.5352 8.62563 12.5352H9.91937C10.1874 12.5352 10.4041 12.7567 10.4041 13.0305V14.3307ZM10.4041 10.9839C10.4041 11.2576 10.1874 11.4791 9.91937 11.4791H8.62563C8.35764 11.4791 8.14085 11.2576 8.14085 10.9839V9.68367C8.14085 9.4099 8.35764 9.18841 8.62563 9.18841H9.91937C10.1874 9.18841 10.4041 9.4099 10.4041 9.68367V10.9839ZM10.4041 7.56216C10.4041 7.83594 10.1874 8.05742 9.91937 8.05742H8.62563C8.35764 8.05742 8.14085 7.83594 8.14085 7.56216V6.26198C8.14085 5.98821 8.35764 5.76673 8.62563 5.76673H9.91937C10.1874 5.76673 10.4041 5.98821 10.4041 6.26198V7.56216ZM13.9501 10.9839C13.9501 11.2576 13.7334 11.4791 13.4654 11.4791H12.1716C11.9036 11.4791 11.6869 11.2576 11.6869 10.9839V9.68367C11.6869 9.4099 11.9036 9.18841 12.1716 9.18841H13.4654C13.7334 9.18841 13.9501 9.4099 13.9501 9.68367V10.9839ZM13.9501 7.56216C13.9501 7.83594 13.7334 8.05742 13.4654 8.05742H12.1716C11.9036 8.05742 11.6869 7.83594 11.6869 7.56216V6.26198C11.6869 5.98821 11.9036 5.76673 12.1716 5.76673H13.4654C13.7334 5.76673 13.9501 5.98821 13.9501 6.26198V7.56216Z" fill="white"/>
</g>
<defs>
<clipPath id="clip0_4_205">
<rect width="15" height="16" fill="white"/>
</clipPath>
</defs>
</svg>
