<svg width="20" height="20" viewBox="0 0 20 20" fill="none" xmlns="http://www.w3.org/2000/svg">
<g clip-path="url(#clip0_138_3)">
<path d="M9.99936 14.5841C12.5273 14.5841 14.5828 12.5273 14.5828 10.0006C14.5828 7.47399 12.526 5.41718 9.99936 5.41718C7.47271 5.41718 5.41589 7.47399 5.41589 10.0006C5.41589 12.5273 7.47271 14.5841 9.99936 14.5841ZM9.99936 7.45867C11.4012 7.45867 12.5401 8.59879 12.5401 9.99936C12.5401 11.3999 11.3999 12.5401 9.99936 12.5401C8.59878 12.5401 7.45866 11.3999 7.45866 9.99936C7.45866 8.59879 8.59878 7.45867 9.99936 7.45867Z" fill="#135885"/>
<path d="M9.11586 19.9999H10.8841C11.5225 19.9999 12.0434 19.4803 12.0434 18.8407V18.2317C12.8643 18.0274 13.6508 17.7005 14.376 17.2639L14.8075 17.6954C15.0259 17.9138 15.3169 18.035 15.6272 18.035C15.9374 18.035 16.2285 17.9138 16.4469 17.6942L17.6955 16.4442C17.9138 16.2259 18.0351 15.9348 18.0351 15.6246C18.0351 15.3143 17.9151 15.0245 17.6955 14.8049L17.264 14.3734C17.7019 13.6482 18.0287 12.8604 18.2317 12.0408H18.8407C19.4791 12.0408 20 11.5212 20 10.8815V9.11324C20 8.47487 19.4804 7.95397 18.8407 7.95397H18.2317C18.0274 7.13303 17.7006 6.34656 17.264 5.62138L17.6955 5.18984C17.9138 4.97152 18.0351 4.68043 18.0351 4.37018C18.0351 4.05994 17.9151 3.77012 17.6955 3.55052L16.4456 2.3006C15.9936 1.84864 15.2595 1.84864 14.8075 2.3006L14.376 2.73213C13.6508 2.29422 12.8631 1.96737 12.0434 1.76437V1.15665C12.0434 0.518282 11.5238 -0.00262451 10.8841 -0.00262451H9.11586C8.4775 -0.00262451 7.95659 0.517005 7.95659 1.15665V1.76437C7.13565 1.96865 6.34919 2.29549 5.624 2.73213L5.19247 2.3006C4.7405 1.84864 4.00638 1.84864 3.55442 2.3006L2.3045 3.5518C2.0849 3.77139 1.96489 4.06249 1.96489 4.37146C1.96489 4.68043 2.08618 4.9728 2.3045 5.19112L2.73603 5.62266C2.29939 6.34784 1.97255 7.13558 1.76827 7.95524H1.15927C0.520905 7.95524 0 8.47487 0 9.11452V10.8828C0 11.5212 0.519629 12.0421 1.15927 12.0421H1.76827C1.97255 12.863 2.29939 13.6495 2.73603 14.3747L2.3045 14.8062C1.85254 15.2594 1.85254 15.9948 2.3045 16.4455L3.55442 17.6954C3.77274 17.9138 4.06384 18.035 4.37408 18.035C4.68433 18.035 4.97542 17.9138 5.19374 17.6942L5.624 17.2639C6.34919 17.7005 7.13693 18.0274 7.95659 18.2317V18.8407C7.95659 19.479 8.47622 19.9999 9.11586 19.9999ZM9.99936 17.9572V16.5004L9.11714 16.3791C8.02936 16.2297 6.99138 15.7982 6.11427 15.133L5.4044 14.5942L4.86562 13.8844C4.20045 13.0073 3.76891 11.9693 3.61953 10.8815L3.49824 9.99929L3.61953 9.11707C3.76891 8.02929 4.20045 6.99131 4.86562 6.1142L5.4044 5.40433L6.11427 4.86555C6.99138 4.20038 8.02936 3.76884 9.11714 3.61946L9.99936 3.49817L10.8816 3.61946C11.9681 3.76884 13.0073 4.1991 13.8845 4.86555L14.5943 5.40433L15.6259 4.37274L14.5943 5.40561L15.1331 6.11547C15.7983 6.99259 16.2298 8.03057 16.3792 9.11835L16.5005 10.0006L16.3792 10.8828C16.2298 11.9706 15.7983 13.0085 15.1331 13.8857L14.5943 14.5955L15.6272 15.6284L14.5956 14.5968L13.8857 15.1356C13.0086 15.8008 11.9706 16.2323 10.8829 16.3817L10.0006 16.503V17.9597L9.99936 17.9572Z" fill="#135885"/>
</g>
<defs>
<clipPath id="clip0_138_3">
<rect width="20" height="20" fill="white" transform="matrix(-1 0 0 1 20 0)"/>
</clipPath>
</defs>
</svg>
