<svg width="25" height="26" viewBox="0 0 25 26" fill="none" xmlns="http://www.w3.org/2000/svg">
<path d="M22.9936 9.23411C22.9305 9.0512 22.8156 8.89054 22.663 8.77161C22.5103 8.65269 22.3264 8.58061 22.1336 8.56411L16.4436 7.73411L13.8936 2.56411C13.8117 2.39504 13.6839 2.25245 13.5247 2.15268C13.3655 2.05291 13.1815 2 12.9936 2C12.8058 2 12.6217 2.05291 12.4625 2.15268C12.3034 2.25245 12.1755 2.39504 12.0936 2.56411L9.54363 7.72411L3.85363 8.56411C3.66855 8.59042 3.49455 8.66807 3.35138 8.78827C3.20821 8.90846 3.10159 9.06638 3.04363 9.24411C2.99057 9.41778 2.98581 9.60263 3.02986 9.7788C3.0739 9.95498 3.16509 10.1158 3.29363 10.2441L7.42363 14.2441L6.42363 19.9241C6.38793 20.1116 6.40662 20.3054 6.4775 20.4826C6.54838 20.6598 6.66848 20.813 6.82363 20.9241C6.97485 21.0322 7.1532 21.096 7.33868 21.1084C7.52415 21.1208 7.7094 21.0812 7.87363 20.9941L12.9936 18.3241L18.0936 21.0041C18.234 21.0833 18.3925 21.1246 18.5536 21.1241C18.7655 21.1249 18.972 21.0583 19.1436 20.9341C19.2988 20.823 19.4189 20.6698 19.4898 20.4926C19.5606 20.3154 19.5793 20.1216 19.5436 19.9341L18.5436 14.2541L22.6736 10.2541C22.818 10.1318 22.9247 9.97101 22.9814 9.79046C23.038 9.6099 23.0423 9.41698 22.9936 9.23411ZM16.8436 13.2341C16.7264 13.3475 16.6386 13.488 16.5881 13.6431C16.5375 13.7982 16.5257 13.9634 16.5536 14.1241L17.2736 18.3141L13.5136 16.3141C13.3689 16.2371 13.2075 16.1968 13.0436 16.1968C12.8797 16.1968 12.7183 16.2371 12.5736 16.3141L8.81363 18.3141L9.53363 14.1241C9.56157 13.9634 9.54974 13.7982 9.49919 13.6431C9.44865 13.488 9.36091 13.3475 9.24363 13.2341L6.24363 10.2341L10.4536 9.62411C10.6156 9.60158 10.7696 9.53965 10.9021 9.44376C11.0346 9.34787 11.1416 9.22095 11.2136 9.07411L12.9936 5.26411L14.8736 9.08411C14.9457 9.23095 15.0526 9.35787 15.1851 9.45376C15.3176 9.54965 15.4716 9.61158 15.6336 9.63411L19.8436 10.2441L16.8436 13.2341Z" fill="#ECEDEE"/>
</svg>
