<svg width="25" height="26" viewBox="0 0 25 26" fill="none" xmlns="http://www.w3.org/2000/svg">
<path d="M22.2182 10.1719C22.1544 9.97949 22.0384 9.81049 21.8843 9.6854C21.7301 9.5603 21.5444 9.48448 21.3497 9.46712L15.6032 8.59405L13.028 3.15571C12.9453 2.97786 12.8161 2.82787 12.6554 2.72293C12.4946 2.61798 12.3088 2.56232 12.119 2.56232C11.9293 2.56232 11.7434 2.61798 11.5827 2.72293C11.4219 2.82787 11.2928 2.97786 11.2101 3.15571L8.63481 8.58353L2.88837 9.46712C2.70146 9.4948 2.52573 9.57648 2.38114 9.70292C2.23655 9.82935 2.12887 9.99547 2.07034 10.1824C2.01676 10.3651 2.01195 10.5595 2.05643 10.7449C2.10091 10.9302 2.193 11.0994 2.32282 11.2343L6.49378 15.4419L5.48386 21.4167C5.44781 21.614 5.46669 21.8178 5.53827 22.0042C5.60985 22.1906 5.73115 22.3517 5.88783 22.4686C6.04055 22.5824 6.22067 22.6495 6.40799 22.6625C6.5953 22.6755 6.78239 22.6339 6.94825 22.5423L12.119 19.7337L17.2696 22.5528C17.4114 22.6361 17.5714 22.6796 17.7342 22.679C17.9481 22.6798 18.1567 22.6098 18.33 22.4792C18.4867 22.3623 18.608 22.2011 18.6796 22.0147C18.7512 21.8283 18.7701 21.6245 18.734 21.4273L17.7241 15.4525L21.895 11.2448C22.0409 11.1162 22.1486 10.9471 22.2058 10.7571C22.263 10.5672 22.2673 10.3643 22.2182 10.1719ZM16.0072 14.3795C15.8888 14.4988 15.8002 14.6465 15.7491 14.8097C15.6981 14.9729 15.6861 15.1466 15.7143 15.3157L16.4415 19.7232L12.6442 17.6194C12.4981 17.5383 12.3351 17.4959 12.1695 17.4959C12.004 17.4959 11.841 17.5383 11.6949 17.6194L7.89757 19.7232L8.62471 15.3157C8.65292 15.1466 8.64098 14.9729 8.58993 14.8097C8.53888 14.6465 8.45027 14.4988 8.33183 14.3795L5.30208 11.2238L9.55384 10.5821C9.71744 10.5584 9.87297 10.4933 10.0068 10.3924C10.1406 10.2916 10.2486 10.1581 10.3214 10.0036L12.119 5.99584L14.0177 10.0141C14.0904 10.1686 14.1985 10.3021 14.3323 10.403C14.4661 10.5038 14.6216 10.569 14.7852 10.5927L19.037 11.2343L16.0072 14.3795Z" fill="#82BCFF"/>
</svg>
