<svg width="25" height="29" viewBox="0 0 25 29" fill="none" xmlns="http://www.w3.org/2000/svg">
<g clip-path="url(#clip0_138_9)">
<path d="M23.8934 25.7126H0.797988C0.357271 25.7126 0 26.0678 0 26.506V27.6379C0 28.0761 0.357271 28.4314 0.797988 28.4314H23.8934C24.3341 28.4314 24.6914 28.0761 24.6914 27.6379V26.506C24.6914 26.0678 24.3341 25.7126 23.8934 25.7126Z" fill="#135885"/>
<path d="M5.20097 22.1133L5.20097 15.5899C5.20097 15.1516 4.8437 14.7964 4.40298 14.7964H3.26465C2.82393 14.7964 2.46666 15.1516 2.46666 15.5899L2.46666 22.1133C2.46666 22.5515 2.82393 22.9067 3.26465 22.9067H4.40298C4.8437 22.9067 5.20097 22.5515 5.20097 22.1133Z" fill="#135885"/>
<path d="M10.8744 22.1133V10.6583C10.8744 10.2201 10.5172 9.86481 10.0765 9.86481H8.93813C8.49741 9.86481 8.14014 10.2201 8.14014 10.6583V22.1133C8.14014 22.5515 8.49741 22.9067 8.93813 22.9067H10.0765C10.5172 22.9067 10.8744 22.5515 10.8744 22.1133Z" fill="#135885"/>
<path d="M16.5496 22.1133V5.72668C16.5496 5.28847 16.1923 4.93323 15.7516 4.93323H14.6133C14.1725 4.93323 13.8153 5.28847 13.8153 5.72668V22.1133C13.8153 22.5515 14.1725 22.9067 14.6133 22.9067H15.7516C16.1923 22.9067 16.5496 22.5515 16.5496 22.1133Z" fill="#135885"/>
<path d="M22.2247 22.1133V0.793456C22.2247 0.355242 21.8674 0 21.4267 0L20.2884 0C19.8477 0 19.4904 0.355242 19.4904 0.793456V22.1133C19.4904 22.5515 19.8477 22.9067 20.2884 22.9067H21.4267C21.8674 22.9067 22.2247 22.5515 22.2247 22.1133Z" fill="#135885"/>
</g>
<defs>
<clipPath id="clip0_138_9">
<rect width="24.6914" height="28.4314" fill="white"/>
</clipPath>
</defs>
</svg>
