<svg width="20" height="28" viewBox="0 0 20 28" fill="none" xmlns="http://www.w3.org/2000/svg">
<path d="M15.4917 1.82213H12.2657V1.47023C12.2657 0.657578 11.5877 0 10.7532 0H9.24683C8.41082 0 7.73433 0.659069 7.73433 1.47023V1.82213H4.20772C3.81042 1.82213 3.48828 2.13526 3.48828 2.52146V3.51305C3.48828 3.89924 3.81042 4.21238 4.20772 4.21238H15.4917C15.889 4.21238 16.2111 3.89924 16.2111 3.51305V2.52146C16.2111 2.13526 15.889 1.82213 15.4917 1.82213Z" fill="#135885"/>
<path d="M18.0902 6.54443H1.90827C0.854425 6.54443 0 7.37498 0 8.39937V26.1435C0 27.1679 0.854425 27.9985 1.90827 27.9985H18.0902C19.144 27.9985 19.9985 27.1679 19.9985 26.1435V8.39937C19.9985 7.37498 19.144 6.54443 18.0902 6.54443ZM6.93051 15.1138L13.2812 8.94064C13.5558 8.67373 13.9991 8.67373 14.2737 8.94064L15.7923 10.4168C16.0669 10.6837 16.0669 11.1147 15.7923 11.3816L9.44163 17.5548C9.16705 17.8217 8.72373 17.8217 8.44915 17.5548L6.93051 16.0786C6.65593 15.8117 6.65593 15.3807 6.93051 15.1138ZM5.37813 16.6228L7.88925 19.0638L4.48382 19.9286L5.37813 16.6228ZM17.4151 24.6107C17.4151 24.8642 17.2034 25.0685 16.9442 25.0685H3.0543C2.79353 25.0685 2.58337 24.8627 2.58337 24.6107V22.5679C2.58337 22.3144 2.79506 22.1101 3.0543 22.1101H16.9442C17.2049 22.1101 17.4151 22.3159 17.4151 22.5679V24.6107Z" fill="#135885"/>
</svg>
